# xmcd
#
# Track frame offsets:
#	150
#	19880
#	47317
#	64495
#	90285
#	112527
#	135015
#	151182
#	169432
#	188420
#	210027
#	235972
#
# Disc length: 3435 seconds
#
# Revision: 0
# Processed by: cddbd v1.5.1PL2 Copyright (c) Steve Scherf et al.
# Submitted via: dBpowerAMP V4.0
#
DISCID=7f0d690c
DTITLE=Uncle Sam - Uncle Sam
DYEAR=1900
DGENRE=R&B
TTITLE0=Can You Feel It
TTITLE1=You Make Me Feel Like
TTITLE2=Throw Your Hands In The Air
TTITLE3=Leave Well Enough Alone
TTITLE4=Without Lovin' You
TTITLE5=Someone Like You
TTITLE6=Tender Love
TTITLE7=Think About Me
TTITLE8=Baby You Are
TTITLE9=Stop Foolin' Around
TTITLE10=I Don't Ever Want To See You Again
TTITLE11=Can You Feel It (Q Of A Mill Remix)
EXTD=
EXTT0=
EXTT1=
EXTT2=
EXTT3=
EXTT4=
EXTT5=
EXTT6=
EXTT7=
EXTT8=
EXTT9=
EXTT10=
EXTT11=
PLAYORDER=
